<?xml version="1.0" standalone="no"?>
<!DOCTYPE svg PUBLIC "-//W3C//DTD SVG 20010904//EN"
 "http://www.w3.org/TR/2001/REC-SVG-20010904/DTD/svg10.dtd">
<svg version="1.0" xmlns="http://www.w3.org/2000/svg"
 width="1536.000000pt" height="1536.000000pt" viewBox="0 0 1536.000000 1536.000000"
 preserveAspectRatio="xMidYMid meet">
<metadata>
Created by potrace 1.11, written by Peter Selinger 2001-2013
</metadata>
<g transform="translate(0.000000,1536.000000) scale(0.100000,-0.100000)"
fill="#000000" stroke="none">
<path d="M7348 15355 c-1 -1 -62 -6 -134 -9 -72 -4 -142 -9 -155 -11 -13 -2
-60 -6 -104 -9 -44 -4 -91 -8 -105 -10 -14 -3 -50 -7 -80 -11 -91 -10 -154
-18 -295 -40 -49 -7 -107 -16 -127 -19 -21 -3 -58 -10 -83 -16 -25 -6 -62 -13
-83 -16 -29 -4 -188 -39 -312 -69 -328 -77 -871 -253 -1125 -365 -11 -5 -45
-20 -75 -33 -213 -93 -294 -131 -440 -205 -91 -46 -190 -98 -220 -114 -30 -17
-80 -44 -110 -61 -30 -16 -79 -45 -108 -63 -29 -19 -54 -34 -57 -34 -7 0 -190
-116 -335 -213 -116 -78 -463 -330 -496 -361 -6 -6 -29 -24 -50 -41 -32 -25
-222 -186 -260 -220 -469 -424 -892 -895 -1185 -1320 -19 -27 -36 -52 -39 -55
-3 -3 -9 -12 -15 -21 -5 -9 -37 -57 -69 -105 -33 -49 -89 -137 -125 -195 -36
-58 -71 -114 -78 -125 -15 -23 -72 -123 -106 -184 -13 -25 -46 -83 -72 -130
-138 -249 -331 -681 -436 -975 -22 -60 -42 -117 -46 -125 -3 -8 -7 -17 -8 -20
-1 -3 -24 -77 -52 -165 -137 -430 -226 -822 -288 -1262 -3 -21 -7 -47 -10 -58
-2 -11 -7 -51 -10 -90 -4 -38 -8 -81 -11 -95 -2 -14 -7 -61 -10 -105 -3 -44
-7 -91 -9 -104 -26 -159 -26 -978 0 -1251 4 -46 17 -168 20 -200 2 -14 6 -52
9 -84 3 -33 8 -71 10 -85 3 -14 7 -48 11 -76 4 -40 35 -227 60 -370 9 -55 59
-279 77 -350 11 -44 22 -91 24 -105 5 -28 41 -153 86 -305 17 -55 31 -104 32
-110 3 -17 68 -209 75 -220 3 -5 6 -14 7 -20 2 -13 101 -277 124 -330 309
-722 570 -1180 989 -1740 58 -77 110 -145 115 -151 6 -6 46 -55 90 -108 l78
-97 36 63 c39 67 191 223 697 713 142 138 298 288 346 335 48 47 198 193 334
325 136 132 284 276 329 320 81 78 513 497 685 663 47 46 128 124 179 174 l92
91 0 3444 0 3444 1628 -4 c895 -2 1645 -6 1667 -10 22 -3 74 -8 115 -12 41 -3
84 -8 95 -10 11 -2 45 -7 75 -10 30 -3 69 -8 85 -10 17 -3 48 -8 70 -11 22 -3
51 -7 65 -9 46 -7 174 -34 285 -60 395 -93 710 -224 1019 -425 237 -154 462
-377 619 -615 32 -49 64 -89 69 -87 6 1 69 61 142 131 72 71 170 166 218 212
72 71 337 327 678 659 137 133 611 593 680 660 58 56 463 449 686 665 l72 71
-27 24 c-14 14 -53 48 -86 75 -33 28 -62 52 -65 55 -3 3 -41 35 -85 70 -44 36
-85 69 -92 75 -7 5 -18 15 -25 20 -7 6 -33 26 -58 46 -55 43 -374 271 -450
321 -180 117 -301 190 -570 341 -169 96 -590 294 -791 372 -52 21 -107 43
-124 50 -63 28 -317 114 -480 164 -93 28 -183 55 -200 60 -28 9 -142 39 -175
46 -8 2 -71 17 -140 34 -69 16 -136 32 -150 35 -14 2 -50 10 -80 16 -30 6 -66
13 -80 16 -14 2 -36 6 -50 9 -14 3 -41 7 -60 10 -19 3 -57 10 -85 15 -27 5
-70 11 -95 15 -25 3 -54 7 -65 9 -11 2 -49 7 -85 11 -36 4 -73 9 -83 11 -10 2
-48 6 -85 9 -37 4 -78 8 -92 10 -14 2 -68 7 -120 10 -52 4 -110 9 -130 11 -40
5 -817 14 -822 9z"/>
<path d="M13764 12002 c-83 -81 -270 -262 -414 -402 -145 -140 -300 -291 -345
-335 -205 -199 -595 -577 -670 -650 -277 -268 -610 -591 -680 -660 -87 -85
-534 -518 -665 -645 -221 -214 -623 -605 -695 -675 -86 -84 -466 -452 -708
-687 -78 -75 -139 -138 -137 -140 3 -2 37 -17 75 -33 109 -44 269 -130 379
-202 56 -37 103 -69 106 -72 3 -4 39 -33 80 -66 299 -239 535 -609 650 -1020
12 -44 23 -84 24 -90 2 -5 8 -35 14 -65 20 -94 24 -123 42 -275 8 -71 5 -451
-5 -536 -5 -53 -32 -232 -40 -269 -3 -14 -7 -36 -10 -50 -5 -23 -32 -133 -39
-155 -1 -5 -8 -30 -15 -55 -24 -85 -103 -275 -158 -380 -53 -100 -179 -300
-219 -347 -10 -12 -30 -37 -44 -54 -70 -91 -206 -227 -329 -329 -65 -54 -246
-184 -281 -202 -14 -7 -41 -23 -60 -36 -64 -43 -353 -180 -477 -226 -110 -41
-240 -83 -333 -107 -56 -14 -213 -51 -235 -55 -11 -1 -72 -12 -135 -24 -63
-11 -140 -23 -170 -25 -30 -3 -62 -8 -70 -10 -8 -2 -49 -7 -90 -10 -41 -3 -95
-9 -120 -12 -25 -3 -792 -7 -1705 -9 -913 -2 -1669 -3 -1680 -4 -27 0 9 34
-710 -665 -45 -44 -201 -195 -345 -335 -145 -140 -291 -282 -324 -315 -70 -70
-147 -134 -193 -160 -18 -10 -30 -22 -27 -27 11 -17 243 -184 414 -298 202
-135 300 -194 600 -363 169 -96 590 -294 791 -372 52 -21 108 -43 124 -50 90
-40 566 -197 636 -210 13 -3 35 -9 49 -14 21 -9 118 -35 170 -46 8 -2 71 -17
140 -34 69 -16 136 -32 150 -35 22 -4 47 -9 145 -30 18 -3 61 -11 135 -22 14
-3 48 -9 75 -14 28 -5 70 -11 95 -15 25 -3 54 -7 65 -9 11 -2 47 -7 80 -10 33
-4 71 -9 85 -11 36 -6 104 -13 190 -20 41 -4 91 -8 110 -11 233 -25 1081 -25
1241 1 13 2 60 6 104 9 44 4 91 8 105 10 14 3 50 7 80 11 91 10 154 18 295 40
50 7 107 16 127 19 21 3 58 10 83 16 25 6 62 13 83 16 29 4 188 39 312 69 23
5 236 61 305 80 176 48 620 198 640 216 5 5 19 9 31 9 13 0 25 4 28 9 3 4 34
18 68 31 35 12 86 33 113 45 28 13 112 51 188 85 140 62 410 198 525 264 35
20 66 36 68 36 2 0 28 16 58 35 30 19 57 35 60 35 10 0 208 124 401 253 102
68 378 268 441 320 10 9 73 60 139 114 66 53 122 100 125 103 3 3 39 35 80 70
491 427 1013 1032 1356 1570 37 58 79 123 94 145 38 56 132 218 242 420 60
109 200 397 258 530 28 66 58 134 65 151 19 40 126 315 131 334 2 8 22 67 44
130 102 292 231 779 276 1040 13 75 16 97 20 120 3 14 7 36 9 50 3 14 7 43 11
65 3 22 7 47 9 55 2 8 7 41 10 73 4 32 8 66 10 75 2 10 6 45 10 77 4 33 8 70
10 83 2 12 7 64 10 115 4 50 8 99 10 107 25 100 26 1153 1 1232 -3 7 -7 54
-10 103 -7 97 -11 137 -27 257 -5 43 -12 90 -13 105 -8 57 -67 407 -71 412 -1
3 -6 23 -9 43 -9 56 -43 207 -82 361 -203 812 -569 1638 -1034 2337 -119 179
-162 240 -169 240 -3 0 -74 -67 -157 -148z"/>
</g>
</svg>
