<svg width="2187" height="512" viewBox="0 0 2187 512" version="1.1" xmlns="http://www.w3.org/2000/svg" xmlns:xlink="http://www.w3.org/1999/xlink">
<title>logo</title>
<desc>Created using Figma</desc>
<g id="Canvas" transform="translate(-9828 15420)">
<g id="logo">
<g id="Subtract">
<use xlink:href="#path0_fill" transform="translate(9828 -15420)" fill="#FFFFFF"/>
</g>
<g id="Bank0in">
<use xlink:href="#path1_fill" transform="translate(10431 -15443)" fill="#FFFFFF"/>
</g>
</g>
</g>
<defs>
<path id="path0_fill" fill-rule="evenodd" d="M 0 256C 0 114.615 114.615 0 256 0C 321.542 0 381.331 24.6309 426.616 65.1406L 343.827 145.48C 338.562 136.467 331.629 128.96 323.026 122.96C 313.528 116.237 302.353 111.264 289.501 108.042C 276.79 104.821 263.101 103.14 248.433 103L 151 103L 151 332.602L 66.7344 414.375C 64.3818 416.658 62.5156 419.254 61.1387 422.034C 23.0146 377.334 0 319.354 0 256ZM 152.776 408.912L 105.734 454.563C 103.943 456.301 101.979 457.752 99.8994 458.916C 143.105 492.203 197.241 512 256 512C 397.385 512 512 397.385 512 256C 512 200.34 494.236 148.83 464.07 106.827L 314.755 251.726C 320.458 253.858 325.659 256.529 330.36 259.738C 337.065 264.08 342.653 269.333 347.123 275.496C 351.593 281.659 355.016 288.522 357.391 296.086C 359.765 303.51 360.952 311.423 360.952 319.828C 360.952 334.395 358.298 347.211 352.99 358.277C 347.682 369.342 340.278 378.587 330.779 386.011C 321.42 393.434 310.245 399.107 297.254 403.029C 284.402 406.811 270.504 408.772 255.557 408.912L 152.776 408.912Z"/>
<path id="path1_fill" d="M 32.25 413L 32.25 140L 113.438 140C 124.688 140.125 135.688 141.625 146.438 144.5C 157.187 147.25 166.75 151.562 175.125 157.438C 183.5 163.313 190.187 170.813 195.188 179.938C 200.187 189.062 202.625 200 202.5 212.75C 202.375 219.875 201.188 226.375 198.938 232.25C 196.812 238.125 193.812 243.438 189.938 248.188C 186.188 252.813 181.75 256.875 176.625 260.375C 171.5 263.875 166.063 266.875 160.312 269.375C 167.563 271.5 174.188 274.563 180.188 278.562C 186.313 282.438 191.563 287.188 195.938 292.812C 200.313 298.312 203.688 304.563 206.062 311.562C 208.563 318.563 209.812 326.125 209.812 334.25C 209.937 347 207.5 358.25 202.5 368C 197.5 377.75 190.813 385.938 182.438 392.562C 174.062 399.062 164.375 404.062 153.375 407.562C 142.5 411.063 131.25 412.875 119.625 413L 32.25 413ZM 67.125 285.312L 67.125 383.562L 120.562 383.562C 127.813 383.437 134.687 382.25 141.188 380C 147.688 377.625 153.437 374.375 158.438 370.25C 163.438 366.125 167.375 361.062 170.25 355.062C 173.25 349.062 174.75 342.25 174.75 334.625C 174.875 326.875 173.563 320 170.812 314C 168.188 308 164.5 302.938 159.75 298.812C 155 294.562 149.438 291.312 143.062 289.062C 136.688 286.812 129.812 285.562 122.438 285.312L 67.125 285.312ZM 67.125 256.438L 115.5 256.438C 122 256.312 128.375 255.312 134.625 253.438C 140.875 251.437 146.438 248.625 151.312 245C 156.188 241.25 160.125 236.688 163.125 231.312C 166.125 225.937 167.625 219.688 167.625 212.562C 167.625 204.938 166.125 198.437 163.125 193.062C 160.25 187.688 156.313 183.312 151.312 179.938C 146.438 176.438 140.75 173.875 134.25 172.25C 127.875 170.625 121.312 169.75 114.562 169.625L 67.125 169.625L 67.125 256.438ZM 396.562 413C 395.188 410.375 394.063 407.125 393.188 403.25C 392.438 399.25 391.875 395.125 391.5 390.875C 388 394.375 384.062 397.688 379.688 400.812C 375.437 403.938 370.688 406.687 365.438 409.062C 360.313 411.438 354.812 413.312 348.938 414.688C 343.063 416.063 336.812 416.75 330.188 416.75C 319.437 416.75 309.687 415.188 300.938 412.062C 292.312 408.938 284.937 404.75 278.812 399.5C 272.812 394.125 268.125 387.813 264.75 380.562C 261.5 373.188 259.875 365.25 259.875 356.75C 259.875 345.625 262.063 335.875 266.438 327.5C 270.938 319.125 277.25 312.187 285.375 306.688C 293.5 301.062 303.25 296.875 314.625 294.125C 326.125 291.375 338.938 290 353.062 290L 390.938 290L 390.938 274.062C 390.938 267.937 389.812 262.438 387.562 257.562C 385.312 252.688 382.125 248.562 378 245.188C 373.875 241.687 368.812 239 362.812 237.125C 356.938 235.25 350.312 234.312 342.938 234.312C 336.062 234.312 329.875 235.188 324.375 236.938C 319 238.687 314.438 241 310.688 243.875C 306.938 246.75 304 250.188 301.875 254.188C 299.875 258.063 298.875 262.125 298.875 266.375L 264 266.375C 264.125 259 266 251.75 269.625 244.625C 273.375 237.5 278.688 231.125 285.562 225.5C 292.563 219.75 301 215.125 310.875 211.625C 320.875 208.125 332.188 206.375 344.812 206.375C 356.312 206.375 367 207.812 376.875 210.688C 386.75 213.437 395.25 217.688 402.375 223.438C 409.625 229.062 415.312 236.125 419.438 244.625C 423.562 253.125 425.625 263.062 425.625 274.438L 425.625 368.75C 425.625 375.5 426.25 382.687 427.5 390.312C 428.75 397.812 430.5 404.375 432.75 410L 432.75 413L 396.562 413ZM 335.25 386.562C 342 386.562 348.313 385.687 354.188 383.938C 360.062 382.188 365.375 379.875 370.125 377C 375 374.125 379.187 370.875 382.688 367.25C 386.188 363.5 388.937 359.625 390.938 355.625L 390.938 314.562L 358.688 314.562C 338.438 314.562 322.688 317.562 311.438 323.562C 300.188 329.562 294.562 339 294.562 351.875C 294.562 356.875 295.375 361.5 297 365.75C 298.75 370 301.312 373.687 304.688 376.812C 308.062 379.812 312.312 382.188 317.438 383.938C 322.563 385.687 328.5 386.562 335.25 386.562ZM 525 210.125L 527.438 240.125C 534.813 229.625 543.875 221.437 554.625 215.562C 565.375 209.562 577.375 206.5 590.625 206.375C 601.25 206.375 610.875 207.875 619.5 210.875C 628.25 213.875 635.687 218.562 641.812 224.938C 647.938 231.312 652.625 239.437 655.875 249.312C 659.25 259.062 660.938 270.688 660.938 284.188L 660.938 413L 626.25 413L 626.25 284.938C 626.25 275.938 625.25 268.312 623.25 262.062C 621.25 255.813 618.25 250.75 614.25 246.875C 610.375 243 605.563 240.187 599.812 238.438C 594.188 236.688 587.687 235.812 580.312 235.812C 568.688 235.812 558.437 238.75 549.562 244.625C 540.813 250.375 533.812 258 528.562 267.5L 528.562 413L 493.875 413L 493.875 210.125L 525 210.125ZM 785.25 318.312L 759.75 342.875L 759.75 413L 724.875 413L 724.875 125L 759.75 125L 759.75 301.25L 782.438 276.875L 849 210.125L 891.188 210.125L 809.062 294.688L 903.75 413L 859.688 413L 785.25 318.312ZM 1126.5 308.562C 1126.5 325.937 1124.5 341.375 1120.5 354.875C 1116.5 368.25 1110.75 379.563 1103.25 388.812C 1095.75 397.937 1086.56 404.875 1075.69 409.625C 1064.81 414.375 1052.38 416.75 1038.38 416.75C 1024.5 416.75 1012.06 414.375 1001.06 409.625C 990.188 404.875 980.937 397.937 973.312 388.812C 965.687 379.563 959.812 368.25 955.688 354.875C 951.688 341.375 949.688 325.937 949.688 308.562L 949.688 244.625C 949.688 227.25 951.688 211.875 955.688 198.5C 959.687 185 965.438 173.625 972.938 164.375C 980.562 155.125 989.812 148.125 1000.69 143.375C 1011.69 138.5 1024.12 136.062 1038 136.062C 1052 136.062 1064.44 138.5 1075.31 143.375C 1086.31 148.125 1095.56 155.125 1103.06 164.375C 1110.69 173.625 1116.5 185 1120.5 198.5C 1124.5 211.875 1126.5 227.25 1126.5 244.625L 1126.5 308.562ZM 984.562 301.625L 1090.88 220.062C 1088.87 201.938 1083.56 188.188 1074.94 178.812C 1066.44 169.313 1054.12 164.562 1038 164.562C 1019.75 164.562 1006.25 170.75 997.5 183.125C 988.875 195.375 984.562 213.312 984.562 236.938L 984.562 301.625ZM 1091.62 253.25L 985.5 334.438C 987.625 352.062 993.063 365.5 1001.81 374.75C 1010.56 384 1022.75 388.625 1038.38 388.625C 1056.75 388.625 1070.19 382.375 1078.69 369.875C 1087.31 357.375 1091.62 339.375 1091.62 315.875L 1091.62 253.25ZM 1191.19 210.125L 1294.88 210.125L 1294.88 383L 1361.06 383L 1361.06 413L 1191.19 413L 1191.19 383L 1260.19 383L 1260.19 240.312L 1191.19 240.312L 1191.19 210.125ZM 1255.69 156.875C 1255.69 151.125 1257.38 146.312 1260.75 142.438C 1264.25 138.437 1269.5 136.438 1276.5 136.438C 1283.38 136.438 1288.56 138.437 1292.06 142.438C 1295.56 146.312 1297.31 151.125 1297.31 156.875C 1297.31 162.5 1295.56 167.188 1292.06 170.938C 1288.56 174.688 1283.38 176.562 1276.5 176.562C 1269.5 176.562 1264.25 174.688 1260.75 170.938C 1257.38 167.188 1255.69 162.5 1255.69 156.875ZM 1447.5 210.125L 1449.94 240.125C 1457.31 229.625 1466.37 221.437 1477.12 215.562C 1487.87 209.562 1499.87 206.5 1513.12 206.375C 1523.75 206.375 1533.38 207.875 1542 210.875C 1550.75 213.875 1558.19 218.562 1564.31 224.938C 1570.44 231.312 1575.13 239.437 1578.38 249.312C 1581.75 259.062 1583.44 270.688 1583.44 284.188L 1583.44 413L 1548.75 413L 1548.75 284.938C 1548.75 275.938 1547.75 268.312 1545.75 262.062C 1543.75 255.813 1540.75 250.75 1536.75 246.875C 1532.87 243 1528.06 240.187 1522.31 238.438C 1516.69 236.688 1510.19 235.812 1502.81 235.812C 1491.19 235.812 1480.94 238.75 1472.06 244.625C 1463.31 250.375 1456.31 258 1451.06 267.5L 1451.06 413L 1416.38 413L 1416.38 210.125L 1447.5 210.125Z"/>
</defs>
</svg>
