<svg width="512" height="512" viewBox="0 0 512 512" version="1.1" xmlns="http://www.w3.org/2000/svg" xmlns:xlink="http://www.w3.org/1999/xlink">
<title>logo-wo-text</title>
<desc>Created using Figma</desc>
<g id="Canvas" transform="translate(-14501 14009)">
<g id="logo-wo-text">
<g id="Subtract">
<use xlink:href="#path0_fill" transform="translate(14501 -14009)" fill="url(#paint0_linear)"/>
</g>
</g>
</g>
<defs>
<linearGradient id="paint0_linear" x1="0" y1="0" x2="1" y2="0" gradientUnits="userSpaceOnUse" gradientTransform="matrix(-512 473 -208.492 -1268.52 616.246 634.259)">
<stop offset="0" stop-color="#5070D5"/>
<stop offset="0.994475" stop-color="#2C398F"/>
</linearGradient>
<path id="path0_fill" fill-rule="evenodd" d="M 0 256C 0 114.615 114.615 0 256 0C 321.542 0 381.331 24.6309 426.616 65.1406L 343.827 145.48C 338.562 136.468 331.629 128.961 323.026 122.96C 313.528 116.236 302.353 111.264 289.501 108.043C 276.79 104.821 263.101 103.14 248.433 103L 151 103L 151 332.603L 66.7344 414.375C 64.3818 416.658 62.5156 419.255 61.1387 422.034C 23.0146 377.334 0 319.354 0 256ZM 152.776 408.912L 105.734 454.562C 103.943 456.301 101.979 457.752 99.8994 458.916C 143.105 492.203 197.24 512 256 512C 397.385 512 512 397.385 512 256C 512 200.341 494.237 148.829 464.071 106.827L 314.755 251.726C 320.458 253.858 325.66 256.529 330.36 259.738C 337.065 264.08 342.653 269.333 347.123 275.496C 351.593 281.659 355.016 288.522 357.391 296.086C 359.765 303.51 360.952 311.424 360.952 319.828C 360.952 334.395 358.298 347.211 352.99 358.276C 347.682 369.343 340.278 378.587 330.779 386.011C 321.42 393.435 310.245 399.107 297.254 403.029C 284.402 406.811 270.504 408.771 255.557 408.912L 152.776 408.912Z"/>
</defs>
</svg>
